{
	"patcher" : 	{
		"fileversion" : 1,
		"appversion" : 		{
			"major" : 6,
			"minor" : 0,
			"revision" : 7
		}
,
		"rect" : [ 42.0, 152.0, 1129.0, 481.0 ],
		"bglocked" : 0,
		"openinpresentation" : 0,
		"default_fontsize" : 12.0,
		"default_fontface" : 0,
		"default_fontname" : "Arial",
		"gridonopen" : 0,
		"gridsize" : [ 15.0, 15.0 ],
		"gridsnaponopen" : 0,
		"statusbarvisible" : 2,
		"toolbarvisible" : 1,
		"boxanimatetime" : 200,
		"imprint" : 0,
		"enablehscroll" : 1,
		"enablevscroll" : 1,
		"devicewidth" : 0.0,
		"description" : "",
		"digest" : "",
		"tags" : "",
		"boxes" : [ 			{
				"box" : 				{
					"args" : [ "filt" ],
					"id" : "obj-45",
					"maxclass" : "bpatcher",
					"name" : "t_filt.edit.maxpat",
					"numinlets" : 0,
					"numoutlets" : 0,
					"patching_rect" : [ 804.0, 157.950562, 256.0, 124.032959 ]
				}

			}
, 			{
				"box" : 				{
					"args" : [ "del" ],
					"id" : "obj-41",
					"maxclass" : "bpatcher",
					"name" : "t_del.edit.maxpat",
					"numinlets" : 0,
					"numoutlets" : 0,
					"patching_rect" : [ 804.0, 95.950562, 256.0, 62.0 ]
				}

			}
, 			{
				"box" : 				{
					"color" : [ 0.4, 0.8, 1.0, 1.0 ],
					"fontname" : "Arial",
					"fontsize" : 18.0,
					"id" : "obj-25",
					"maxclass" : "newobj",
					"numinlets" : 0,
					"numoutlets" : 0,
					"patching_rect" : [ 673.0, 176.967041, 67.0, 27.0 ],
					"text" : "t_filt filt"
				}

			}
, 			{
				"box" : 				{
					"fontname" : "Arial",
					"fontsize" : 12.0,
					"id" : "obj-36",
					"maxclass" : "newobj",
					"numinlets" : 2,
					"numoutlets" : 1,
					"outlettype" : [ "" ],
					"patching_rect" : [ 592.533569, 273.967041, 90.0, 20.0 ],
					"text" : "sprintf /%s/%ld"
				}

			}
, 			{
				"box" : 				{
					"fontname" : "Arial",
					"fontsize" : 12.0,
					"id" : "obj-27",
					"maxclass" : "newobj",
					"numinlets" : 2,
					"numoutlets" : 1,
					"outlettype" : [ "" ],
					"patching_rect" : [ 390.533569, 238.967041, 90.0, 20.0 ],
					"text" : "sprintf /%s/%ld"
				}

			}
, 			{
				"box" : 				{
					"fontname" : "Arial",
					"fontsize" : 12.0,
					"id" : "obj-23",
					"maxclass" : "newobj",
					"numinlets" : 2,
					"numoutlets" : 1,
					"outlettype" : [ "" ],
					"patching_rect" : [ 171.533569, 260.967041, 90.0, 20.0 ],
					"text" : "sprintf /%s/%ld"
				}

			}
, 			{
				"box" : 				{
					"color" : [ 0.4, 0.8, 1.0, 1.0 ],
					"fontname" : "Arial",
					"fontsize" : 18.0,
					"id" : "obj-15",
					"maxclass" : "newobj",
					"numinlets" : 0,
					"numoutlets" : 0,
					"patching_rect" : [ 673.0, 142.967041, 79.0, 27.0 ],
					"text" : "t_del del"
				}

			}
, 			{
				"box" : 				{
					"fontname" : "Arial",
					"fontsize" : 12.0,
					"id" : "obj-34",
					"maxclass" : "message",
					"numinlets" : 2,
					"numoutlets" : 1,
					"outlettype" : [ "" ],
					"patching_rect" : [ 171.533569, 238.967041, 63.0, 18.0 ],
					"text" : "mouse $1"
				}

			}
, 			{
				"box" : 				{
					"fontname" : "Arial",
					"fontsize" : 12.0,
					"id" : "obj-35",
					"maxclass" : "number",
					"numinlets" : 1,
					"numoutlets" : 2,
					"outlettype" : [ "int", "bang" ],
					"parameter_enable" : 0,
					"patching_rect" : [ 171.533569, 209.967041, 50.0, 20.0 ]
				}

			}
, 			{
				"box" : 				{
					"fontname" : "Arial",
					"fontsize" : 12.0,
					"id" : "obj-31",
					"maxclass" : "message",
					"numinlets" : 2,
					"numoutlets" : 1,
					"outlettype" : [ "" ],
					"patching_rect" : [ 592.533569, 248.967041, 43.0, 18.0 ],
					"text" : "del $1"
				}

			}
, 			{
				"box" : 				{
					"fontname" : "Arial",
					"fontsize" : 12.0,
					"id" : "obj-32",
					"maxclass" : "number",
					"numinlets" : 1,
					"numoutlets" : 2,
					"outlettype" : [ "int", "bang" ],
					"parameter_enable" : 0,
					"patching_rect" : [ 592.533569, 219.967041, 50.0, 20.0 ]
				}

			}
, 			{
				"box" : 				{
					"fontname" : "Arial",
					"fontsize" : 12.0,
					"id" : "obj-30",
					"maxclass" : "message",
					"numinlets" : 2,
					"numoutlets" : 1,
					"outlettype" : [ "" ],
					"patching_rect" : [ 327.283539, 127.967041, 32.5, 18.0 ],
					"text" : "1"
				}

			}
, 			{
				"box" : 				{
					"fontname" : "Arial",
					"fontsize" : 12.0,
					"id" : "obj-18",
					"maxclass" : "newobj",
					"numinlets" : 1,
					"numoutlets" : 1,
					"outlettype" : [ "bang" ],
					"patching_rect" : [ 327.283539, 100.0, 60.0, 20.0 ],
					"text" : "loadbang"
				}

			}
, 			{
				"box" : 				{
					"fontname" : "Arial",
					"fontsize" : 12.0,
					"id" : "obj-17",
					"maxclass" : "flonum",
					"numinlets" : 1,
					"numoutlets" : 2,
					"outlettype" : [ "float", "bang" ],
					"parameter_enable" : 0,
					"patching_rect" : [ 390.533569, 293.0, 50.0, 20.0 ]
				}

			}
, 			{
				"box" : 				{
					"fontname" : "Arial",
					"fontsize" : 12.0,
					"id" : "obj-14",
					"maxclass" : "message",
					"numinlets" : 2,
					"numoutlets" : 1,
					"outlettype" : [ "" ],
					"patching_rect" : [ 390.533569, 219.967041, 43.0, 18.0 ],
					"text" : "del $1"
				}

			}
, 			{
				"box" : 				{
					"fontname" : "Arial",
					"fontsize" : 12.0,
					"id" : "obj-13",
					"maxclass" : "number",
					"numinlets" : 1,
					"numoutlets" : 2,
					"outlettype" : [ "int", "bang" ],
					"parameter_enable" : 0,
					"patching_rect" : [ 100.533539, 407.967041, 50.0, 20.0 ]
				}

			}
, 			{
				"box" : 				{
					"color" : [ 0.6, 0.6, 1.0, 1.0 ],
					"fontname" : "Arial",
					"fontsize" : 12.0,
					"id" : "obj-1",
					"maxclass" : "newobj",
					"numinlets" : 0,
					"numoutlets" : 1,
					"outlettype" : [ "" ],
					"patching_rect" : [ 100.533539, 377.967041, 77.0, 20.0 ],
					"text" : "r /mouse/1/x"
				}

			}
, 			{
				"box" : 				{
					"fontname" : "Arial",
					"fontsize" : 12.0,
					"id" : "obj-21",
					"linecount" : 2,
					"maxclass" : "message",
					"numinlets" : 2,
					"numoutlets" : 1,
					"outlettype" : [ "" ],
					"patching_rect" : [ 444.533539, 91.0, 113.0, 32.0 ],
					"text" : ";\r/del/1/fb 1 2000 0.2"
				}

			}
, 			{
				"box" : 				{
					"fontname" : "Arial",
					"fontsize" : 12.0,
					"id" : "obj-22",
					"linecount" : 2,
					"maxclass" : "message",
					"numinlets" : 2,
					"numoutlets" : 1,
					"outlettype" : [ "" ],
					"patching_rect" : [ 444.533539, 53.0, 87.0, 32.0 ],
					"text" : ";\r/del/1/fb 0 500"
				}

			}
, 			{
				"box" : 				{
					"fontname" : "Arial",
					"fontsize" : 12.0,
					"id" : "obj-24",
					"linecount" : 2,
					"maxclass" : "message",
					"numinlets" : 2,
					"numoutlets" : 1,
					"outlettype" : [ "" ],
					"patching_rect" : [ 444.533539, 15.0, 93.0, 32.0 ],
					"text" : ";\r/del/1/fb 1 2000"
				}

			}
, 			{
				"box" : 				{
					"fontname" : "Arial",
					"fontsize" : 12.0,
					"id" : "obj-19",
					"maxclass" : "newobj",
					"numinlets" : 1,
					"numoutlets" : 1,
					"outlettype" : [ "" ],
					"patching_rect" : [ 436.533569, 330.0, 56.0, 20.0 ],
					"text" : "deferlow"
				}

			}
, 			{
				"box" : 				{
					"fontname" : "Arial",
					"fontsize" : 12.0,
					"id" : "obj-16",
					"maxclass" : "flonum",
					"numinlets" : 1,
					"numoutlets" : 2,
					"outlettype" : [ "float", "bang" ],
					"parameter_enable" : 0,
					"patching_rect" : [ 492.533569, 330.0, 50.0, 20.0 ]
				}

			}
, 			{
				"box" : 				{
					"fontname" : "Arial",
					"fontsize" : 12.0,
					"id" : "obj-5",
					"maxclass" : "number~",
					"mode" : 2,
					"numinlets" : 2,
					"numoutlets" : 2,
					"outlettype" : [ "signal", "float" ],
					"patching_rect" : [ 315.533539, 293.0, 56.0, 20.0 ],
					"sig" : 0.0
				}

			}
, 			{
				"box" : 				{
					"color" : [ 0.6, 0.6, 1.0, 1.0 ],
					"fontname" : "Arial",
					"fontsize" : 10.0,
					"id" : "obj-6",
					"maxclass" : "newobj",
					"numinlets" : 1,
					"numoutlets" : 0,
					"patching_rect" : [ 304.733215, 219.967041, 54.0, 18.0 ],
					"text" : "s /del/1/fb"
				}

			}
, 			{
				"box" : 				{
					"fontname" : "Arial",
					"fontsize" : 12.0,
					"id" : "obj-7",
					"maxclass" : "flonum",
					"numinlets" : 1,
					"numoutlets" : 2,
					"outlettype" : [ "float", "bang" ],
					"parameter_enable" : 0,
					"patching_rect" : [ 284.366913, 377.967041, 73.0, 20.0 ]
				}

			}
, 			{
				"box" : 				{
					"color" : [ 0.0, 1.0, 0.0, 1.0 ],
					"fontname" : "Arial",
					"fontsize" : 12.0,
					"id" : "obj-8",
					"maxclass" : "newobj",
					"numinlets" : 1,
					"numoutlets" : 4,
					"outlettype" : [ "", "", "clear", "bang" ],
					"patching_rect" : [ 284.366913, 348.5, 86.0, 20.0 ],
					"text" : "span.requests"
				}

			}
, 			{
				"box" : 				{
					"fontname" : "Arial",
					"fontsize" : 12.0,
					"id" : "obj-9",
					"maxclass" : "message",
					"numinlets" : 2,
					"numoutlets" : 1,
					"outlettype" : [ "" ],
					"patching_rect" : [ 284.366913, 320.967041, 107.0, 18.0 ],
					"text" : "getparam /del/1/fb"
				}

			}
, 			{
				"box" : 				{
					"fontname" : "Arial",
					"fontsize" : 12.0,
					"id" : "obj-10",
					"maxclass" : "flonum",
					"numinlets" : 1,
					"numoutlets" : 2,
					"outlettype" : [ "float", "bang" ],
					"parameter_enable" : 0,
					"patching_rect" : [ 284.366913, 190.967041, 50.0, 20.0 ]
				}

			}
, 			{
				"box" : 				{
					"fontname" : "Arial",
					"fontsize" : 12.0,
					"id" : "obj-11",
					"maxclass" : "number",
					"numinlets" : 1,
					"numoutlets" : 2,
					"outlettype" : [ "int", "bang" ],
					"parameter_enable" : 0,
					"patching_rect" : [ 390.533569, 190.967041, 50.0, 20.0 ]
				}

			}
, 			{
				"box" : 				{
					"color" : [ 0.4, 1.0, 0.8, 1.0 ],
					"fontname" : "Arial",
					"fontsize" : 12.0,
					"id" : "obj-12",
					"maxclass" : "newobj",
					"numinlets" : 1,
					"numoutlets" : 2,
					"outlettype" : [ "signal", "float" ],
					"patching_rect" : [ 315.533539, 267.5, 94.0, 20.0 ],
					"text" : "span.param~ fb"
				}

			}
, 			{
				"box" : 				{
					"fontname" : "Arial",
					"fontsize" : 12.0,
					"id" : "obj-4",
					"linecount" : 2,
					"maxclass" : "message",
					"numinlets" : 2,
					"numoutlets" : 1,
					"outlettype" : [ "" ],
					"patching_rect" : [ 51.733231, 91.0, 146.0, 32.0 ],
					"text" : ";\r/del/1/time 1000 5000 0.2"
				}

			}
, 			{
				"box" : 				{
					"fontname" : "Arial",
					"fontsize" : 12.0,
					"id" : "obj-3",
					"linecount" : 2,
					"maxclass" : "message",
					"numinlets" : 2,
					"numoutlets" : 1,
					"outlettype" : [ "" ],
					"patching_rect" : [ 51.733231, 53.0, 99.0, 32.0 ],
					"text" : ";\r/del/1/time 0 500"
				}

			}
, 			{
				"box" : 				{
					"fontname" : "Arial",
					"fontsize" : 12.0,
					"id" : "obj-2",
					"linecount" : 2,
					"maxclass" : "message",
					"numinlets" : 2,
					"numoutlets" : 1,
					"outlettype" : [ "" ],
					"patching_rect" : [ 51.733231, 15.0, 126.0, 32.0 ],
					"text" : ";\r/del/1/time 1000 5000"
				}

			}
, 			{
				"box" : 				{
					"color" : [ 0.6, 0.6, 1.0, 1.0 ],
					"fontname" : "Arial",
					"fontsize" : 10.0,
					"id" : "obj-28",
					"maxclass" : "newobj",
					"numinlets" : 1,
					"numoutlets" : 0,
					"patching_rect" : [ 481.733215, 256.967041, 64.0, 18.0 ],
					"text" : "s /del/1/time"
				}

			}
, 			{
				"box" : 				{
					"fontname" : "Arial",
					"fontsize" : 12.0,
					"id" : "obj-39",
					"maxclass" : "flonum",
					"numinlets" : 1,
					"numoutlets" : 2,
					"outlettype" : [ "float", "bang" ],
					"parameter_enable" : 0,
					"patching_rect" : [ 461.366943, 414.967041, 73.0, 20.0 ]
				}

			}
, 			{
				"box" : 				{
					"color" : [ 0.0, 1.0, 0.0, 1.0 ],
					"fontname" : "Arial",
					"fontsize" : 12.0,
					"id" : "obj-40",
					"maxclass" : "newobj",
					"numinlets" : 1,
					"numoutlets" : 4,
					"outlettype" : [ "", "", "clear", "bang" ],
					"patching_rect" : [ 461.366943, 385.5, 86.0, 20.0 ],
					"text" : "span.requests"
				}

			}
, 			{
				"box" : 				{
					"fontname" : "Arial",
					"fontsize" : 12.0,
					"id" : "obj-42",
					"maxclass" : "message",
					"numinlets" : 2,
					"numoutlets" : 1,
					"outlettype" : [ "" ],
					"patching_rect" : [ 461.366943, 357.967041, 120.0, 18.0 ],
					"text" : "getparam /del/1/time"
				}

			}
, 			{
				"box" : 				{
					"fontname" : "Arial",
					"fontsize" : 12.0,
					"id" : "obj-43",
					"maxclass" : "number",
					"numinlets" : 1,
					"numoutlets" : 2,
					"outlettype" : [ "int", "bang" ],
					"parameter_enable" : 0,
					"patching_rect" : [ 481.733215, 229.967041, 50.0, 20.0 ]
				}

			}
, 			{
				"box" : 				{
					"fontname" : "Arial",
					"fontsize" : 12.0,
					"id" : "obj-38",
					"maxclass" : "number",
					"numinlets" : 1,
					"numoutlets" : 2,
					"outlettype" : [ "int", "bang" ],
					"parameter_enable" : 0,
					"patching_rect" : [ 37.366913, 377.967041, 50.0, 20.0 ]
				}

			}
, 			{
				"box" : 				{
					"color" : [ 0.0, 1.0, 0.0, 1.0 ],
					"fontname" : "Arial",
					"fontsize" : 12.0,
					"id" : "obj-37",
					"maxclass" : "newobj",
					"numinlets" : 1,
					"numoutlets" : 4,
					"outlettype" : [ "", "", "clear", "bang" ],
					"patching_rect" : [ 37.366913, 348.5, 86.0, 20.0 ],
					"text" : "span.requests"
				}

			}
, 			{
				"box" : 				{
					"fontname" : "Arial",
					"fontsize" : 12.0,
					"id" : "obj-33",
					"maxclass" : "message",
					"numinlets" : 2,
					"numoutlets" : 1,
					"outlettype" : [ "" ],
					"patching_rect" : [ 37.366913, 320.967041, 123.0, 18.0 ],
					"text" : "getparam /mouse/1/x"
				}

			}
, 			{
				"box" : 				{
					"fontname" : "Arial",
					"fontsize" : 12.0,
					"id" : "obj-29",
					"maxclass" : "number",
					"numinlets" : 1,
					"numoutlets" : 2,
					"outlettype" : [ "int", "bang" ],
					"parameter_enable" : 0,
					"patching_rect" : [ 68.533539, 219.967041, 50.0, 20.0 ]
				}

			}
, 			{
				"box" : 				{
					"color" : [ 0.4, 1.0, 0.8, 1.0 ],
					"fontname" : "Arial",
					"fontsize" : 12.0,
					"id" : "obj-26",
					"maxclass" : "newobj",
					"numinlets" : 2,
					"numoutlets" : 2,
					"outlettype" : [ "int", "" ],
					"patching_rect" : [ 68.533539, 267.5, 83.0, 20.0 ],
					"text" : "span.param x"
				}

			}
, 			{
				"box" : 				{
					"color" : [ 0.4, 1.0, 0.8, 1.0 ],
					"fontname" : "Arial",
					"fontsize" : 12.0,
					"id" : "obj-20",
					"maxclass" : "newobj",
					"numinlets" : 2,
					"numoutlets" : 2,
					"outlettype" : [ "int", "" ],
					"patching_rect" : [ 492.533569, 304.5, 100.0, 20.0 ],
					"text" : "span.param time"
				}

			}
 ],
		"lines" : [ 			{
				"patchline" : 				{
					"destination" : [ "obj-13", 0 ],
					"disabled" : 0,
					"hidden" : 0,
					"source" : [ "obj-1", 0 ]
				}

			}
, 			{
				"patchline" : 				{
					"destination" : [ "obj-6", 0 ],
					"disabled" : 0,
					"hidden" : 0,
					"source" : [ "obj-10", 0 ]
				}

			}
, 			{
				"patchline" : 				{
					"destination" : [ "obj-9", 0 ],
					"disabled" : 0,
					"hidden" : 0,
					"source" : [ "obj-10", 0 ]
				}

			}
, 			{
				"patchline" : 				{
					"destination" : [ "obj-14", 0 ],
					"disabled" : 0,
					"hidden" : 0,
					"source" : [ "obj-11", 0 ]
				}

			}
, 			{
				"patchline" : 				{
					"destination" : [ "obj-17", 0 ],
					"disabled" : 0,
					"hidden" : 0,
					"source" : [ "obj-12", 1 ]
				}

			}
, 			{
				"patchline" : 				{
					"destination" : [ "obj-5", 0 ],
					"disabled" : 0,
					"hidden" : 0,
					"source" : [ "obj-12", 0 ]
				}

			}
, 			{
				"patchline" : 				{
					"destination" : [ "obj-27", 0 ],
					"disabled" : 0,
					"hidden" : 0,
					"source" : [ "obj-14", 0 ]
				}

			}
, 			{
				"patchline" : 				{
					"destination" : [ "obj-30", 0 ],
					"disabled" : 0,
					"hidden" : 0,
					"source" : [ "obj-18", 0 ]
				}

			}
, 			{
				"patchline" : 				{
					"destination" : [ "obj-42", 0 ],
					"disabled" : 0,
					"hidden" : 0,
					"source" : [ "obj-19", 0 ]
				}

			}
, 			{
				"patchline" : 				{
					"destination" : [ "obj-16", 0 ],
					"disabled" : 0,
					"hidden" : 0,
					"source" : [ "obj-20", 0 ]
				}

			}
, 			{
				"patchline" : 				{
					"destination" : [ "obj-19", 0 ],
					"disabled" : 0,
					"hidden" : 0,
					"source" : [ "obj-20", 0 ]
				}

			}
, 			{
				"patchline" : 				{
					"destination" : [ "obj-26", 1 ],
					"disabled" : 0,
					"hidden" : 0,
					"source" : [ "obj-23", 0 ]
				}

			}
, 			{
				"patchline" : 				{
					"destination" : [ "obj-12", 0 ],
					"disabled" : 0,
					"hidden" : 0,
					"source" : [ "obj-27", 0 ]
				}

			}
, 			{
				"patchline" : 				{
					"destination" : [ "obj-26", 0 ],
					"disabled" : 0,
					"hidden" : 0,
					"source" : [ "obj-29", 0 ]
				}

			}
, 			{
				"patchline" : 				{
					"destination" : [ "obj-33", 0 ],
					"disabled" : 0,
					"hidden" : 0,
					"source" : [ "obj-29", 0 ]
				}

			}
, 			{
				"patchline" : 				{
					"destination" : [ "obj-11", 0 ],
					"disabled" : 0,
					"hidden" : 0,
					"source" : [ "obj-30", 0 ]
				}

			}
, 			{
				"patchline" : 				{
					"destination" : [ "obj-32", 0 ],
					"disabled" : 0,
					"hidden" : 0,
					"source" : [ "obj-30", 0 ]
				}

			}
, 			{
				"patchline" : 				{
					"destination" : [ "obj-35", 0 ],
					"disabled" : 0,
					"hidden" : 0,
					"source" : [ "obj-30", 0 ]
				}

			}
, 			{
				"patchline" : 				{
					"destination" : [ "obj-36", 0 ],
					"disabled" : 0,
					"hidden" : 0,
					"source" : [ "obj-31", 0 ]
				}

			}
, 			{
				"patchline" : 				{
					"destination" : [ "obj-31", 0 ],
					"disabled" : 0,
					"hidden" : 0,
					"source" : [ "obj-32", 0 ]
				}

			}
, 			{
				"patchline" : 				{
					"destination" : [ "obj-37", 0 ],
					"disabled" : 0,
					"hidden" : 0,
					"source" : [ "obj-33", 0 ]
				}

			}
, 			{
				"patchline" : 				{
					"destination" : [ "obj-23", 0 ],
					"disabled" : 0,
					"hidden" : 0,
					"source" : [ "obj-34", 0 ]
				}

			}
, 			{
				"patchline" : 				{
					"destination" : [ "obj-34", 0 ],
					"disabled" : 0,
					"hidden" : 0,
					"source" : [ "obj-35", 0 ]
				}

			}
, 			{
				"patchline" : 				{
					"destination" : [ "obj-20", 1 ],
					"disabled" : 0,
					"hidden" : 0,
					"source" : [ "obj-36", 0 ]
				}

			}
, 			{
				"patchline" : 				{
					"destination" : [ "obj-38", 0 ],
					"disabled" : 0,
					"hidden" : 0,
					"source" : [ "obj-37", 0 ]
				}

			}
, 			{
				"patchline" : 				{
					"destination" : [ "obj-39", 0 ],
					"disabled" : 0,
					"hidden" : 0,
					"source" : [ "obj-40", 0 ]
				}

			}
, 			{
				"patchline" : 				{
					"destination" : [ "obj-40", 0 ],
					"disabled" : 0,
					"hidden" : 0,
					"source" : [ "obj-42", 0 ]
				}

			}
, 			{
				"patchline" : 				{
					"destination" : [ "obj-28", 0 ],
					"disabled" : 0,
					"hidden" : 0,
					"source" : [ "obj-43", 0 ]
				}

			}
, 			{
				"patchline" : 				{
					"destination" : [ "obj-9", 0 ],
					"disabled" : 0,
					"hidden" : 0,
					"source" : [ "obj-5", 1 ]
				}

			}
, 			{
				"patchline" : 				{
					"destination" : [ "obj-7", 0 ],
					"disabled" : 0,
					"hidden" : 0,
					"source" : [ "obj-8", 0 ]
				}

			}
, 			{
				"patchline" : 				{
					"destination" : [ "obj-8", 0 ],
					"disabled" : 0,
					"hidden" : 0,
					"source" : [ "obj-9", 0 ]
				}

			}
 ],
		"dependency_cache" : [ 			{
				"name" : "span.param.maxpat",
				"bootpath" : "/there/projects1/Environ ments/didascalie-net/span/lib",
				"patcherrelativepath" : "../../lib",
				"type" : "JSON",
				"implicit" : 1
			}
, 			{
				"name" : "span.requests.maxpat",
				"bootpath" : "/there/projects1/Environ ments/didascalie-net/span/lib",
				"patcherrelativepath" : "../../lib",
				"type" : "JSON",
				"implicit" : 1
			}
, 			{
				"name" : "span.param~.maxpat",
				"bootpath" : "/there/projects1/Environ ments/didascalie-net/span/lib",
				"patcherrelativepath" : "../../lib",
				"type" : "JSON",
				"implicit" : 1
			}
, 			{
				"name" : "t_del.maxpat",
				"bootpath" : "/there/projects1/Environ ments/didascalie-net/tapemovie2/tapemovie-lib/modules/audio/processing/del",
				"patcherrelativepath" : "../../../tapemovie2/tapemovie-lib/modules/audio/processing/del",
				"type" : "JSON",
				"implicit" : 1
			}
, 			{
				"name" : "proc-randtransf0.maxpat",
				"bootpath" : "/there/projects1/Environ ments/didascalie-net/tapemovie2/tapemovie-lib/common/common-lib/rand-lib",
				"patcherrelativepath" : "../../../tapemovie2/tapemovie-lib/common/common-lib/rand-lib",
				"type" : "JSON",
				"implicit" : 1
			}
, 			{
				"name" : "randtransf0.maxpat",
				"bootpath" : "/there/projects1/Environ ments/didascalie-net/tapemovie2/tapemovie-lib/common/common-lib/rand-lib",
				"patcherrelativepath" : "../../../tapemovie2/tapemovie-lib/common/common-lib/rand-lib",
				"type" : "JSON",
				"implicit" : 1
			}
, 			{
				"name" : "randomfR.maxpat",
				"bootpath" : "/there/projects1/Environ ments/didascalie-net/tapemovie2/tapemovie-lib/common/common-lib/rand-lib",
				"patcherrelativepath" : "../../../tapemovie2/tapemovie-lib/common/common-lib/rand-lib",
				"type" : "JSON",
				"implicit" : 1
			}
, 			{
				"name" : "randomR.maxpat",
				"bootpath" : "/there/projects1/Environ ments/didascalie-net/tapemovie2/tapemovie-lib/common/common-lib/rand-lib",
				"patcherrelativepath" : "../../../tapemovie2/tapemovie-lib/common/common-lib/rand-lib",
				"type" : "JSON",
				"implicit" : 1
			}
, 			{
				"name" : "minmaxi.maxpat",
				"bootpath" : "/there/projects1/Environ ments/didascalie-net/tapemovie2/tapemovie-lib/common/common-lib/rand-lib",
				"patcherrelativepath" : "../../../tapemovie2/tapemovie-lib/common/common-lib/rand-lib",
				"type" : "JSON",
				"implicit" : 1
			}
, 			{
				"name" : "odds.maxpat",
				"bootpath" : "/there/projects1/Environ ments/didascalie-net/tapemovie2/tapemovie-lib/common/common-lib/rand-lib",
				"patcherrelativepath" : "../../../tapemovie2/tapemovie-lib/common/common-lib/rand-lib",
				"type" : "JSON",
				"implicit" : 1
			}
, 			{
				"name" : "proc-randtransf.maxpat",
				"bootpath" : "/there/projects1/Environ ments/didascalie-net/tapemovie2/tapemovie-lib/common/common-lib/rand-lib",
				"patcherrelativepath" : "../../../tapemovie2/tapemovie-lib/common/common-lib/rand-lib",
				"type" : "JSON",
				"implicit" : 1
			}
, 			{
				"name" : "randtransf.maxpat",
				"bootpath" : "/there/projects1/Environ ments/didascalie-net/tapemovie2/tapemovie-lib/common/common-lib/rand-lib",
				"patcherrelativepath" : "../../../tapemovie2/tapemovie-lib/common/common-lib/rand-lib",
				"type" : "JSON",
				"implicit" : 1
			}
, 			{
				"name" : "t_filt.maxpat",
				"bootpath" : "/there/projects1/Environ ments/didascalie-net/tapemovie2/tapemovie-lib/modules/audio/processing/filt",
				"patcherrelativepath" : "../../../tapemovie2/tapemovie-lib/modules/audio/processing/filt",
				"type" : "JSON",
				"implicit" : 1
			}
, 			{
				"name" : "t_del.edit.maxpat",
				"bootpath" : "/there/projects1/Environ ments/didascalie-net/tapemovie2/tapemovie-lib/modules/audio/processing/del",
				"patcherrelativepath" : "../../../tapemovie2/tapemovie-lib/modules/audio/processing/del",
				"type" : "JSON",
				"implicit" : 1
			}
, 			{
				"name" : "bkgndp.maxpat",
				"bootpath" : "/there/projects1/Environ ments/didascalie-net/tapemovie2/tapemovie-lib/common/common-lib/bkgnd-lib",
				"patcherrelativepath" : "../../../tapemovie2/tapemovie-lib/common/common-lib/bkgnd-lib",
				"type" : "JSON",
				"implicit" : 1
			}
, 			{
				"name" : "jsui_textbutton.js",
				"bootpath" : "/Applications/Max6/Cycling '74/jsui-library",
				"patcherrelativepath" : "../../../../../../../Applications/Max6/Cycling '74/jsui-library",
				"type" : "TEXT",
				"implicit" : 1
			}
, 			{
				"name" : "storetemppath.maxpat",
				"bootpath" : "/there/projects1/Environ ments/didascalie-net/tapemovie2/tapemovie-lib/common/common-lib/temp-lib",
				"patcherrelativepath" : "../../../tapemovie2/tapemovie-lib/common/common-lib/temp-lib",
				"type" : "JSON",
				"implicit" : 1
			}
, 			{
				"name" : "tempqlist.maxpat",
				"bootpath" : "/there/projects1/Environ ments/didascalie-net/tapemovie2/tapemovie-lib/common/common-lib/temp-lib",
				"patcherrelativepath" : "../../../tapemovie2/tapemovie-lib/common/common-lib/temp-lib",
				"type" : "JSON",
				"implicit" : 1
			}
, 			{
				"name" : "variedit.maxpat",
				"bootpath" : "/there/projects1/Environ ments/didascalie-net/tapemovie2/tapemovie-lib/common/common-lib/vari-lib",
				"patcherrelativepath" : "../../../tapemovie2/tapemovie-lib/common/common-lib/vari-lib",
				"type" : "JSON",
				"implicit" : 1
			}
, 			{
				"name" : "tagtocolor.maxpat",
				"bootpath" : "/there/projects1/Environ ments/didascalie-net/tapemovie2/tapemovie-lib",
				"patcherrelativepath" : "../../../tapemovie2/tapemovie-lib",
				"type" : "JSON",
				"implicit" : 1
			}
, 			{
				"name" : "editvar.maxpat",
				"bootpath" : "/there/projects1/Environ ments/didascalie-net/tapemovie2/tapemovie-lib",
				"patcherrelativepath" : "../../../tapemovie2/tapemovie-lib",
				"type" : "JSON",
				"implicit" : 1
			}
, 			{
				"name" : "tm_editsetup.maxpat",
				"bootpath" : "/there/projects1/Environ ments/didascalie-net/tapemovie2/tapemovie-lib",
				"patcherrelativepath" : "../../../tapemovie2/tapemovie-lib",
				"type" : "JSON",
				"implicit" : 1
			}
, 			{
				"name" : "t_filt.edit.maxpat",
				"bootpath" : "/there/projects1/Environ ments/didascalie-net/tapemovie2/tapemovie-lib/modules/audio/processing/filt",
				"patcherrelativepath" : "../../../tapemovie2/tapemovie-lib/modules/audio/processing/filt",
				"type" : "JSON",
				"implicit" : 1
			}
 ]
	}

}
